<svg version="1.0" xmlns="http://www.w3.org/2000/svg" width="533.333" height="533.333" viewBox="0 0 400 400"><path d="M185.5 42.1c-10 1.3-13.1 1.9-21.5 3.9-28.9 7.1-54.5 23.9-68.6 45.2-4.6 6.9-10.8 20.7-11.8 26.3-.3 1.6-.9 5.5-1.4 8.5-.6 3-.9 10-.7 15.5 1 32.7 15.9 54.2 48.3 69.6 16.1 7.6 33.3 12.8 71.7 21.4 45.4 10.3 59.5 20.5 56.3 41-2.6 17.1-15.5 26.9-40.4 30.9-7.1 1.2-33.1 1.3-38.9.3-1.6-.3-5-.9-7.5-1.2-14.9-2-32.8-8.7-50.5-19-10.4-6.1-16.9-8.5-22.8-8.5-13.5 0-24.3 15.1-22.6 31.6.8 8.1 4 13.7 11.4 19.7 19.4 15.7 53 27.4 87.5 30.4 16.5 1.5 51.6.8 59-1.2.8-.2 3.1-.7 5-1 22-3.7 46.4-15.5 61.8-29.9 5.1-4.8 13.7-16.4 17-23.1 10.8-21.5 11.6-50.6 2-71.3-7-15-21.7-28-43.3-38.2-12.6-5.9-37.8-14-59-19-21.5-5-26.6-6.3-36.5-9.7-22.3-7.6-31.1-16.2-31.2-30.6-.1-15 7.3-26 22.4-33 10.8-5 29.5-7.2 49.6-5.7 15.1 1.1 34.1 7.9 50.5 18.3 15.4 9.7 24.8 12.5 33 9.8 11.6-3.9 19.3-21.6 15.3-35.3-2.1-7.3-7.9-13.7-18.8-20.8-21-13.9-44.1-21.8-72.8-24.9-9.6-1-34.9-1-42.5 0z"/></svg>